<?xml version="1.0" ?><!DOCTYPE svg  PUBLIC '-//W3C//DTD SVG 1.1//EN'  'http://www.w3.org/Graphics/SVG/1.1/DTD/svg11.dtd'><svg enable-background="new 0 0 256 256" height="256px" id="Layer_1" version="1.1" viewBox="0 0 256 256" width="256px" xml:space="preserve" xmlns="http://www.w3.org/2000/svg" xmlns:xlink="http://www.w3.org/1999/xlink"><g><g><path clip-rule="evenodd" d="M169,62.593c18,0,18,27.909,0,27.909     c-10,0-16.502-10.772-12.453-19.72c0.964,7.366,12.389,6.733,12.389-0.812c0-3.141-2.494-5.736-5.52-6.135     C165.169,63.036,167,62.593,169,62.593L169,62.593z M99.04,160.456c3.354,0,6.071,2.729,6.071,6.094s-2.718,6.094-6.071,6.094     s-6.074-2.729-6.074-6.094S95.687,160.456,99.04,160.456L99.04,160.456z M118.347,156.8c3.354,0,6.072,2.729,6.072,6.094     s-2.719,6.094-6.072,6.094s-6.073-2.729-6.073-6.094S114.993,156.8,118.347,156.8L118.347,156.8z M137.654,156.8     c3.353,0,6.071,2.729,6.071,6.094s-2.719,6.094-6.071,6.094c-3.354,0-6.072-2.729-6.072-6.094S134.301,156.8,137.654,156.8     L137.654,156.8z M156.961,160.456c3.354,0,6.071,2.729,6.071,6.094s-2.718,6.094-6.071,6.094s-6.072-2.729-6.072-6.094     S153.607,160.456,156.961,160.456L156.961,160.456z M107.479,176.046c3.354,0,6.074,2.729,6.074,6.094s-2.721,6.094-6.074,6.094     c-3.352,0-6.072-2.729-6.072-6.094S104.127,176.046,107.479,176.046L107.479,176.046z M128,173.608     c3.354,0,6.072,2.729,6.072,6.094s-2.719,6.094-6.072,6.094s-6.072-2.729-6.072-6.094S124.646,173.608,128,173.608L128,173.608z      M148.521,176.046c3.354,0,6.072,2.729,6.072,6.094s-2.719,6.094-6.072,6.094s-6.071-2.729-6.071-6.094     S145.168,176.046,148.521,176.046L148.521,176.046z M117.131,190.415c3.354,0,6.072,2.73,6.072,6.096     c0,3.363-2.719,6.094-6.072,6.094c-3.353,0-6.071-2.73-6.071-6.094C111.06,193.146,113.778,190.415,117.131,190.415     L117.131,190.415z M138.869,190.415c3.352,0,6.072,2.73,6.072,6.096c0,3.363-2.721,6.094-6.072,6.094     c-3.354,0-6.074-2.73-6.074-6.094C132.795,193.146,135.516,190.415,138.869,190.415L138.869,190.415z M86,62.593     c18,0,18,27.909,0,27.909c-10,0-16.469-10.772-12.418-19.72c0.964,7.366,12.406,6.733,12.406-0.812     c0-3.141-2.522-5.736-5.546-6.135C82.193,63.036,84,62.593,86,62.593z" fill="#965E89" fill-rule="evenodd"/><path clip-rule="evenodd" d="M165.847,215.634c2.958,3.783,4.562,8.602,4.124,13.604H217     c7,0,7,12.007,0,12.007h-52.447c-8.404,9.006-23.791,9.006-32.188,0h-8.796c-8.398,9.006-23.787,9.006-32.191,0H38     c-7,0-7-12.007,0-12.007h47.959c-0.438-5.003,1.168-9.825,4.131-13.612c-1.59-1.408-3.157-2.85-4.699-4.404l-1.281,9.011h-0.006     c-3.06,18.011-42.613-16.299-53.645-64.357c-3.268-14.239-5.918-39.858,10.295-44.935c-0.734-13.082,1.381-27.514,7.406-37.16     c0,0,0.776-9.283,5.423-17.044c-13.614-9.541-16.897-29.647-8.55-45.357l-0.01-0.005c2.098-4.175,8.039-4.529,10.424-0.549     l0.006-0.004c14.436,23.961,42.725-2.144,72.512-2.144c29.771,0,58.104,26.106,72.515,2.146c2.66-4.425,8.622-3.286,10.591,0.902     c7.519,16.008,5.186,35.273-8.721,45.016c2.979,4.976,4.87,10.686,5.342,16.791l0.02,0.031     c6.116,9.648,8.194,24.269,7.454,37.385c29.04,9.071,5.058,90.912-34.591,113.469c-3.533,2.011-8.069-0.182-8.745-4.185h-0.006     l-1.281-9.001C169.002,212.786,167.434,214.224,165.847,215.634L165.847,215.634z M107.471,207.277     c8.909,0,16.935,4.95,20.177,12.955h0.634c4.242-10.006,16.922-15.435,27.635-11.698c4.674-3.863,9.177-8.42,13.424-13.646     c0.854-2.528-4.48-72.652,33.924-83.549l-0.418-15.866c-9.005,15.959-29.184,23.675-46.678,17.212     c-2.193,12.237-10.998,2.629-18.491,12.555c-1.953,2.588-3.986,8.275-6.956,9.846c-9.622,5.082-8.607-13.883-21.04-14.853     c-5.079-0.395-8.701-0.753-9.917-7.538c-17.493,6.467-37.678-1.242-46.682-17.205l-0.43,15.893     c38.417,10.879,33.086,81.057,33.939,83.588c4.252,5.229,8.756,9.789,13.432,13.653     C102.349,207.813,104.859,207.277,107.471,207.277L107.471,207.277z M86.498,37.81c25.057,0,43.553,24.327,37.057,48.342h8.821     c-9.837-36.021,33.944-63.777,62.337-38.801c6.611-3.85,9.631-13.175,8.611-21.174c-19.838,18.783-50.131-5.66-75.359-5.66     s-55.516,24.529-75.359,5.742c-1.019,7.999,2.002,17.338,8.613,21.189C67.969,41.511,76.818,37.81,86.498,37.81L86.498,37.81z      M127.965,118.444c3.947-5.288,9.596-9.262,15.769-9.914c-2.763-4.478-11.663-11.53-16.556-10.602     c-4.344,0.822-12.246,6.188-14.994,10.6C118.362,109.181,124.014,113.15,127.965,118.444L127.965,118.444z M188.186,57.726     c-16.498-16.561-45.275-4.822-45.275,18.82c0,23.646,28.777,35.379,45.275,18.82C198.27,85.247,198.27,67.844,188.186,57.726     L188.186,57.726z M105.254,57.726c-16.5-16.559-45.277-4.824-45.277,18.82c0,23.646,28.777,35.377,45.277,18.82     C115.338,85.249,115.336,67.844,105.254,57.726L105.254,57.726z M155.525,222.007c-8.417-7.762-23.21,3.316-14.131,11.682     C149.817,241.448,164.602,230.37,155.525,222.007L155.525,222.007z M114.537,222.007c-8.416-7.762-23.209,3.314-14.132,11.682     C108.824,241.446,123.613,230.382,114.537,222.007L114.537,222.007z M213.465,123.714l-4.055-1.518     c-29.659,4.491-29.811,63.705-27.238,86.799c2.402-1.962,4.697-4.145,6.877-6.506     C187.475,180.351,189.114,131.37,213.465,123.714L213.465,123.714z M46.521,122.196c-15.348-2.093-3.949,61.33,27.238,86.799     c0.242-2.167,0.447-4.391,0.614-6.656c-15.144-16.785-27.808-46.532-26.313-68.625c0.324-4.809,1.252-8.641,3.393-10.194     L46.521,122.196z" fill="#965E89" fill-rule="evenodd"/></g></g></svg>